<svg width="24" height="24" viewBox="0 0 24 24" fill="none" xmlns="http://www.w3.org/2000/svg">
<path fill-rule="evenodd" clip-rule="evenodd" d="M10.8561 13.1464C9.68615 11.9764 8.80415 10.6664 8.21815 9.33731C8.09415 9.05631 8.16715 8.72731 8.38415 8.51031L9.20315 7.69231C9.87415 7.02131 9.87415 6.07231 9.28815 5.48631L8.11415 4.31231C7.33315 3.53131 6.06715 3.53131 5.28615 4.31231L4.63415 4.96431C3.89315 5.70531 3.58415 6.77431 3.78415 7.83431C4.27815 10.4474 5.79615 13.3084 8.24515 15.7574C10.6941 18.2064 13.5551 19.7244 16.1681 20.2184C17.2281 20.4184 18.2971 20.1094 19.0381 19.3684L19.6891 18.7174C20.4701 17.9364 20.4701 16.6704 19.6891 15.8894L18.5161 14.7164C17.9301 14.1304 16.9801 14.1304 16.3951 14.7164L15.4921 15.6204C15.2751 15.8374 14.9461 15.9104 14.6651 15.7864C13.3361 15.1994 12.0261 14.3164 10.8561 13.1464Z" stroke="white" stroke-width="1.5" stroke-linecap="round" stroke-linejoin="round"/>
</svg>
