<svg width="120" height="120" viewBox="0 0 120 120" fill="none" xmlns="http://www.w3.org/2000/svg">
<g clip-path="url(#clip0_230_7)">
<path d="M64.2119 36.9307C64.6204 36.3692 65.3594 36.1593 66.002 36.4219C66.6447 36.6847 67.0248 37.3523 66.9229 38.0391L64.7314 52.7744L64.6885 53.0615H72.999C73.5551 53.0617 74.0658 53.368 74.3281 53.8584C74.5904 54.349 74.5619 54.9447 74.2529 55.4072L55.8164 83.0127C55.5304 83.4411 55.0543 83.6836 54.5615 83.6836C54.3847 83.6837 54.2051 83.6522 54.0312 83.5869H54.0322C53.3762 83.3402 52.9763 82.6743 53.0674 81.9795L55.2979 64.9678L55.335 64.6855H46.9951C46.428 64.6855 45.9088 64.3667 45.6514 63.8613C45.3942 63.3562 45.4422 62.7495 45.7754 62.291L64.2119 36.9307ZM62.4365 44.502L50.2441 61.2725L49.9551 61.6699H57.0537C57.4878 61.6699 57.9011 61.8564 58.1875 62.1826C58.4737 62.5089 58.6052 62.9429 58.5488 63.373L57.0371 74.9014L57.4932 75.0723L69.9189 56.4658L70.1787 56.0771H62.9404C62.5018 56.0771 62.0843 55.8858 61.7979 55.5537H61.7969C61.5111 55.2216 61.3838 54.7811 61.4482 54.3477L62.8857 44.6855L62.4365 44.502Z" fill="#0A3D62" stroke="white" stroke-width="0.5"/>
<path d="M36.1724 35.5344H36.2388C37.0715 35.5344 37.7466 36.2095 37.7466 37.0422C37.7466 37.875 37.0715 38.55 36.2388 38.55H36.1724C35.3396 38.55 34.6646 37.875 34.6646 37.0422C34.6646 36.2095 35.3396 35.5344 36.1724 35.5344Z" fill="#0A3D62" stroke="white" stroke-width="0.5"/>
<path d="M83.7544 35.5344H83.8208C84.6535 35.5344 85.3286 36.2095 85.3286 37.0422C85.3286 37.875 84.6535 38.55 83.8208 38.55H83.7544C82.9217 38.55 82.2466 37.875 82.2466 37.0422C82.2466 36.2095 82.9217 35.5344 83.7544 35.5344Z" fill="#0A3D62" stroke="white" stroke-width="0.5"/>
<path d="M36.1724 81.4497H36.2388C37.0715 81.4497 37.7466 82.1248 37.7466 82.9575C37.7466 83.7903 37.0715 84.4653 36.2388 84.4653H36.1724C35.3396 84.4653 34.6646 83.7903 34.6646 82.9575C34.6646 82.1248 35.3396 81.4497 36.1724 81.4497Z" fill="#0A3D62" stroke="white" stroke-width="0.5"/>
<path d="M83.7544 81.4497H83.8208C84.6535 81.4497 85.3286 82.1248 85.3286 82.9575C85.3286 83.7903 84.6535 84.4653 83.8208 84.4653H83.7544C82.9217 84.4653 82.2466 83.7903 82.2466 82.9575C82.2466 82.1248 82.9217 81.4497 83.7544 81.4497Z" fill="#0A3D62" stroke="white" stroke-width="0.5"/>
<mask id="path-6-inside-1_230_7" fill="white">
<path d="M113.585 80.4179C110.658 80.4179 108.185 82.3847 107.418 85.063H101.818L92.2824 73.9189V61.7544H100.647C101.414 64.4327 103.885 66.3995 106.808 66.3995C110.346 66.3995 113.223 63.5272 113.223 59.9966C113.223 56.4696 110.346 53.6002 106.808 53.6002C103.886 53.6002 101.415 55.5642 100.648 58.2388H92.2824V46.0808L101.818 34.9367H107.418C108.186 37.6113 110.659 39.5753 113.585 39.5753C117.122 39.5753 120 36.7059 120 33.1789C120 29.6483 117.122 26.7759 113.585 26.7759C110.658 26.7759 108.185 28.7428 107.418 31.4211H101.008C100.495 31.4211 100.007 31.6458 99.6727 32.0361L92.2824 40.6733V32.112C92.2824 29.7323 90.3434 27.7963 87.9601 27.7963H79.383L88.0297 20.4359C88.4222 20.102 88.6482 19.6126 88.6482 19.0974V12.7029C91.3296 11.9373 93.2989 9.46841 93.2989 6.54684C93.2989 3.01977 90.424 0.150391 86.8904 0.150391C83.3531 0.150391 80.4754 3.01977 80.4754 6.54684C80.4754 9.46902 82.4475 11.9385 85.1326 12.7034V18.2854L73.9594 27.7964H61.7545V19.4625C64.4395 18.6975 66.4118 16.228 66.4118 13.3058C66.4118 9.77519 63.5339 6.90285 59.9967 6.90285C56.4594 6.90285 53.5816 9.77521 53.5816 13.3058C53.5816 16.228 55.5538 18.6975 58.2389 19.4625V27.7964H46.0406L34.8674 18.2854V12.7029C37.5487 11.9373 39.5179 9.46841 39.5179 6.54684C39.5179 3.01977 36.6432 0.150391 33.1096 0.150391C29.5723 0.150391 26.6945 3.01977 26.6945 6.54684C26.6945 9.46902 28.6667 11.9385 31.3518 12.7034V19.0975C31.3518 19.6127 31.5778 20.102 31.9702 20.436L40.617 27.7964H32.0399C29.6565 27.7964 27.7176 29.7324 27.7176 32.112V40.6733L20.3272 32.0361C19.9933 31.6458 19.5053 31.4211 18.9916 31.4211H12.5757C11.8082 28.7428 9.33497 26.7759 6.40847 26.7759C2.87487 26.7759 0 29.6483 0 33.179C0 36.7059 2.87487 39.5753 6.40847 39.5753C9.33429 39.5753 11.8071 37.6114 12.5752 34.9368H18.1822L27.7176 46.0809V58.2388H19.3517C18.5836 55.5642 16.1108 53.6003 13.185 53.6003C9.64769 53.6003 6.76997 56.4696 6.76997 59.9966C6.76997 63.5272 9.64769 66.3996 13.185 66.3996C16.1115 66.3996 18.5848 64.4327 19.3523 61.7544H27.7176V73.919L18.1821 85.063H12.5756C11.8082 82.3847 9.33494 80.4179 6.40844 80.4179C2.87487 80.4179 0 83.2902 0 86.8208C0 90.3478 2.87487 93.2173 6.40847 93.2173C9.33431 93.2173 11.8071 91.2533 12.5752 88.5787H18.9916C19.5053 88.5787 19.9933 88.354 20.3272 87.9637L27.7176 79.3265V87.8878C27.7176 90.2675 29.6565 92.2035 32.0399 92.2035H40.6169L31.9702 99.5637C31.5778 99.8977 31.3518 100.387 31.3518 100.902V107.29C28.6667 108.055 26.6945 110.524 26.6945 113.446C26.6945 116.977 29.5723 119.849 33.1096 119.849C36.6432 119.849 39.5179 116.977 39.5179 113.446C39.5179 110.525 37.5487 108.056 34.8674 107.29V101.714L46.0406 92.2034H58.2389V100.537C55.5538 101.301 53.5816 103.768 53.5816 106.687C53.5816 110.218 56.4594 113.09 59.9967 113.09C63.534 113.09 66.4118 110.218 66.4118 106.687C66.4118 103.768 64.4396 101.301 61.7545 100.537V92.2034H73.9594L85.1326 101.714V107.29C82.4476 108.055 80.4754 110.524 80.4754 113.446C80.4754 116.977 83.3532 119.849 86.8904 119.849C90.424 119.849 93.2989 116.977 93.2989 113.446C93.2989 110.525 91.3296 108.056 88.6482 107.29V100.902C88.6482 100.387 88.4222 99.8977 88.0298 99.5637L79.3831 92.2035H87.9601C90.3435 92.2035 92.2824 90.2675 92.2824 87.8878V79.3265L99.6728 87.9637C100.007 88.354 100.495 88.5787 101.008 88.5787H107.418C108.186 91.2533 110.659 93.2173 113.585 93.2173C117.122 93.2173 120 90.3478 120 86.8208C120 83.2902 117.122 80.4179 113.585 80.4179ZM106.808 57.1159C108.407 57.1159 109.708 58.4081 109.708 59.9966C109.708 61.5887 108.407 62.8839 106.808 62.8839C105.213 62.8839 103.916 61.5887 103.916 59.9966C103.916 58.4081 105.213 57.1159 106.808 57.1159ZM113.585 30.2915C115.184 30.2915 116.484 31.5869 116.484 33.1789C116.484 34.7674 115.184 36.0596 113.585 36.0596C111.986 36.0596 110.686 34.7674 110.686 33.1789C110.686 31.5869 111.986 30.2915 113.585 30.2915ZM83.991 6.54684C83.991 4.95841 85.2917 3.66602 86.8904 3.66602C88.4855 3.66602 89.7832 4.95841 89.7832 6.54684C89.7832 8.13895 88.4855 9.43417 86.8904 9.43417C85.2917 9.43417 83.991 8.13895 83.991 6.54684ZM57.0972 13.3058C57.0972 11.7137 58.3979 10.4185 59.9967 10.4185C61.5954 10.4185 62.8961 11.7137 62.8961 13.3058C62.8961 14.8979 61.5954 16.1933 59.9967 16.1933C58.3979 16.1933 57.0972 14.8979 57.0972 13.3058ZM30.2101 6.54684C30.2101 4.95841 31.5109 3.66602 33.1096 3.66602C34.7047 3.66602 36.0023 4.95841 36.0023 6.54684C36.0023 8.13895 34.7047 9.43417 33.1096 9.43417C31.5109 9.43417 30.2101 8.13895 30.2101 6.54684ZM6.40847 36.0597C4.81338 36.0597 3.51562 34.7674 3.51562 33.179C3.51562 31.5868 4.81338 30.2915 6.40847 30.2915C8.00721 30.2915 9.30783 31.5869 9.30783 33.179C9.30783 34.7674 8.00721 36.0597 6.40847 36.0597ZM13.185 62.8839C11.5862 62.8839 10.2856 61.5887 10.2856 59.9966C10.2856 58.4082 11.5862 57.1159 13.185 57.1159C14.7837 57.1159 16.0845 58.4082 16.0845 59.9966C16.0845 61.5887 14.7837 62.8839 13.185 62.8839ZM6.40847 89.7017C4.81338 89.7017 3.51562 88.4093 3.51562 86.8208C3.51562 85.2287 4.81338 83.9335 6.40847 83.9335C8.00721 83.9335 9.30783 85.2288 9.30783 86.8208C9.30783 88.4093 8.00721 89.7017 6.40847 89.7017ZM36.0023 113.446C36.0023 115.038 34.7047 116.334 33.1096 116.334C31.5109 116.334 30.2101 115.038 30.2101 113.446C30.2101 111.854 31.5109 110.559 33.1096 110.559C34.7047 110.559 36.0023 111.854 36.0023 113.446ZM62.8961 106.687C62.8961 108.279 61.5954 109.575 59.9967 109.575C58.3979 109.575 57.0972 108.279 57.0972 106.687C57.0972 105.099 58.3979 103.807 59.9967 103.807C61.5954 103.807 62.8961 105.099 62.8961 106.687ZM89.7832 113.446C89.7832 115.038 88.4855 116.334 86.8904 116.334C85.2917 116.334 83.991 115.038 83.991 113.446C83.991 111.854 85.2917 110.559 86.8904 110.559C88.4855 110.559 89.7832 111.854 89.7832 113.446ZM88.7668 87.8878C88.7668 88.3215 88.3974 88.6878 87.9601 88.6878H32.0399C31.6026 88.6878 31.2332 88.3215 31.2332 87.8878V32.112C31.2332 31.6709 31.5951 31.312 32.0399 31.312H87.9601C88.3974 31.312 88.7668 31.6783 88.7668 32.112V87.8878ZM113.585 89.7017C111.986 89.7017 110.686 88.4093 110.686 86.8208C110.686 85.2287 111.986 83.9335 113.585 83.9335C115.184 83.9335 116.484 85.2288 116.484 86.8208C116.484 88.4093 115.184 89.7017 113.585 89.7017Z"/>
</mask>
<path d="M113.585 80.4179C110.658 80.4179 108.185 82.3847 107.418 85.063H101.818L92.2824 73.9189V61.7544H100.647C101.414 64.4327 103.885 66.3995 106.808 66.3995C110.346 66.3995 113.223 63.5272 113.223 59.9966C113.223 56.4696 110.346 53.6002 106.808 53.6002C103.886 53.6002 101.415 55.5642 100.648 58.2388H92.2824V46.0808L101.818 34.9367H107.418C108.186 37.6113 110.659 39.5753 113.585 39.5753C117.122 39.5753 120 36.7059 120 33.1789C120 29.6483 117.122 26.7759 113.585 26.7759C110.658 26.7759 108.185 28.7428 107.418 31.4211H101.008C100.495 31.4211 100.007 31.6458 99.6727 32.0361L92.2824 40.6733V32.112C92.2824 29.7323 90.3434 27.7963 87.9601 27.7963H79.383L88.0297 20.4359C88.4222 20.102 88.6482 19.6126 88.6482 19.0974V12.7029C91.3296 11.9373 93.2989 9.46841 93.2989 6.54684C93.2989 3.01977 90.424 0.150391 86.8904 0.150391C83.3531 0.150391 80.4754 3.01977 80.4754 6.54684C80.4754 9.46902 82.4475 11.9385 85.1326 12.7034V18.2854L73.9594 27.7964H61.7545V19.4625C64.4395 18.6975 66.4118 16.228 66.4118 13.3058C66.4118 9.77519 63.5339 6.90285 59.9967 6.90285C56.4594 6.90285 53.5816 9.77521 53.5816 13.3058C53.5816 16.228 55.5538 18.6975 58.2389 19.4625V27.7964H46.0406L34.8674 18.2854V12.7029C37.5487 11.9373 39.5179 9.46841 39.5179 6.54684C39.5179 3.01977 36.6432 0.150391 33.1096 0.150391C29.5723 0.150391 26.6945 3.01977 26.6945 6.54684C26.6945 9.46902 28.6667 11.9385 31.3518 12.7034V19.0975C31.3518 19.6127 31.5778 20.102 31.9702 20.436L40.617 27.7964H32.0399C29.6565 27.7964 27.7176 29.7324 27.7176 32.112V40.6733L20.3272 32.0361C19.9933 31.6458 19.5053 31.4211 18.9916 31.4211H12.5757C11.8082 28.7428 9.33497 26.7759 6.40847 26.7759C2.87487 26.7759 0 29.6483 0 33.179C0 36.7059 2.87487 39.5753 6.40847 39.5753C9.33429 39.5753 11.8071 37.6114 12.5752 34.9368H18.1822L27.7176 46.0809V58.2388H19.3517C18.5836 55.5642 16.1108 53.6003 13.185 53.6003C9.64769 53.6003 6.76997 56.4696 6.76997 59.9966C6.76997 63.5272 9.64769 66.3996 13.185 66.3996C16.1115 66.3996 18.5848 64.4327 19.3523 61.7544H27.7176V73.919L18.1821 85.063H12.5756C11.8082 82.3847 9.33494 80.4179 6.40844 80.4179C2.87487 80.4179 0 83.2902 0 86.8208C0 90.3478 2.87487 93.2173 6.40847 93.2173C9.33431 93.2173 11.8071 91.2533 12.5752 88.5787H18.9916C19.5053 88.5787 19.9933 88.354 20.3272 87.9637L27.7176 79.3265V87.8878C27.7176 90.2675 29.6565 92.2035 32.0399 92.2035H40.6169L31.9702 99.5637C31.5778 99.8977 31.3518 100.387 31.3518 100.902V107.29C28.6667 108.055 26.6945 110.524 26.6945 113.446C26.6945 116.977 29.5723 119.849 33.1096 119.849C36.6432 119.849 39.5179 116.977 39.5179 113.446C39.5179 110.525 37.5487 108.056 34.8674 107.29V101.714L46.0406 92.2034H58.2389V100.537C55.5538 101.301 53.5816 103.768 53.5816 106.687C53.5816 110.218 56.4594 113.09 59.9967 113.09C63.534 113.09 66.4118 110.218 66.4118 106.687C66.4118 103.768 64.4396 101.301 61.7545 100.537V92.2034H73.9594L85.1326 101.714V107.29C82.4476 108.055 80.4754 110.524 80.4754 113.446C80.4754 116.977 83.3532 119.849 86.8904 119.849C90.424 119.849 93.2989 116.977 93.2989 113.446C93.2989 110.525 91.3296 108.056 88.6482 107.29V100.902C88.6482 100.387 88.4222 99.8977 88.0298 99.5637L79.3831 92.2035H87.9601C90.3435 92.2035 92.2824 90.2675 92.2824 87.8878V79.3265L99.6728 87.9637C100.007 88.354 100.495 88.5787 101.008 88.5787H107.418C108.186 91.2533 110.659 93.2173 113.585 93.2173C117.122 93.2173 120 90.3478 120 86.8208C120 83.2902 117.122 80.4179 113.585 80.4179ZM106.808 57.1159C108.407 57.1159 109.708 58.4081 109.708 59.9966C109.708 61.5887 108.407 62.8839 106.808 62.8839C105.213 62.8839 103.916 61.5887 103.916 59.9966C103.916 58.4081 105.213 57.1159 106.808 57.1159ZM113.585 30.2915C115.184 30.2915 116.484 31.5869 116.484 33.1789C116.484 34.7674 115.184 36.0596 113.585 36.0596C111.986 36.0596 110.686 34.7674 110.686 33.1789C110.686 31.5869 111.986 30.2915 113.585 30.2915ZM83.991 6.54684C83.991 4.95841 85.2917 3.66602 86.8904 3.66602C88.4855 3.66602 89.7832 4.95841 89.7832 6.54684C89.7832 8.13895 88.4855 9.43417 86.8904 9.43417C85.2917 9.43417 83.991 8.13895 83.991 6.54684ZM57.0972 13.3058C57.0972 11.7137 58.3979 10.4185 59.9967 10.4185C61.5954 10.4185 62.8961 11.7137 62.8961 13.3058C62.8961 14.8979 61.5954 16.1933 59.9967 16.1933C58.3979 16.1933 57.0972 14.8979 57.0972 13.3058ZM30.2101 6.54684C30.2101 4.95841 31.5109 3.66602 33.1096 3.66602C34.7047 3.66602 36.0023 4.95841 36.0023 6.54684C36.0023 8.13895 34.7047 9.43417 33.1096 9.43417C31.5109 9.43417 30.2101 8.13895 30.2101 6.54684ZM6.40847 36.0597C4.81338 36.0597 3.51562 34.7674 3.51562 33.179C3.51562 31.5868 4.81338 30.2915 6.40847 30.2915C8.00721 30.2915 9.30783 31.5869 9.30783 33.179C9.30783 34.7674 8.00721 36.0597 6.40847 36.0597ZM13.185 62.8839C11.5862 62.8839 10.2856 61.5887 10.2856 59.9966C10.2856 58.4082 11.5862 57.1159 13.185 57.1159C14.7837 57.1159 16.0845 58.4082 16.0845 59.9966C16.0845 61.5887 14.7837 62.8839 13.185 62.8839ZM6.40847 89.7017C4.81338 89.7017 3.51562 88.4093 3.51562 86.8208C3.51562 85.2287 4.81338 83.9335 6.40847 83.9335C8.00721 83.9335 9.30783 85.2288 9.30783 86.8208C9.30783 88.4093 8.00721 89.7017 6.40847 89.7017ZM36.0023 113.446C36.0023 115.038 34.7047 116.334 33.1096 116.334C31.5109 116.334 30.2101 115.038 30.2101 113.446C30.2101 111.854 31.5109 110.559 33.1096 110.559C34.7047 110.559 36.0023 111.854 36.0023 113.446ZM62.8961 106.687C62.8961 108.279 61.5954 109.575 59.9967 109.575C58.3979 109.575 57.0972 108.279 57.0972 106.687C57.0972 105.099 58.3979 103.807 59.9967 103.807C61.5954 103.807 62.8961 105.099 62.8961 106.687ZM89.7832 113.446C89.7832 115.038 88.4855 116.334 86.8904 116.334C85.2917 116.334 83.991 115.038 83.991 113.446C83.991 111.854 85.2917 110.559 86.8904 110.559C88.4855 110.559 89.7832 111.854 89.7832 113.446ZM88.7668 87.8878C88.7668 88.3215 88.3974 88.6878 87.9601 88.6878H32.0399C31.6026 88.6878 31.2332 88.3215 31.2332 87.8878V32.112C31.2332 31.6709 31.5951 31.312 32.0399 31.312H87.9601C88.3974 31.312 88.7668 31.6783 88.7668 32.112V87.8878ZM113.585 89.7017C111.986 89.7017 110.686 88.4093 110.686 86.8208C110.686 85.2287 111.986 83.9335 113.585 83.9335C115.184 83.9335 116.484 85.2288 116.484 86.8208C116.484 88.4093 115.184 89.7017 113.585 89.7017Z" fill="#0A3D62" stroke="white" mask="url(#path-6-inside-1_230_7)"/>
</g>
<defs>
<clipPath id="clip0_230_7">
<rect width="120" height="120" fill="white"/>
</clipPath>
</defs>
</svg>
