<svg width="120" height="120" viewBox="0 0 120 120" fill="none" xmlns="http://www.w3.org/2000/svg">
<g clip-path="url(#clip0_230_114)">
<mask id="path-1-inside-1_230_114" fill="white">
<path d="M120 19.3548V5.80651C120 2.60498 117.395 0 114.193 0L9.67751 0C6.47598 0 3.87101 2.60498 3.87101 5.80651V19.3548C3.87101 21.4892 5.60758 23.2258 7.74201 23.2258V49.1484C2.71898 52.169 0 55.9392 0 59.9999L0 102.58C0 107.528 4.03209 112.044 11.3536 115.298C18.1758 118.33 27.2034 120 36.7743 120C46.3452 120 55.3729 118.33 62.195 115.298C69.5166 112.044 73.5486 107.528 73.5486 102.58V73.5484H114.194C117.395 73.5484 120 70.9434 120 67.7419V54.1936C120 52.0592 118.264 50.3226 116.129 50.3226V23.2258C118.263 23.2258 120 21.4892 120 19.3548ZM7.74201 5.80651C7.74201 4.73941 8.61041 3.87101 9.67751 3.87101H114.193C115.261 3.87101 116.129 4.73941 116.129 5.80651V19.3548H112.258V7.74201H11.6128V19.3548H7.74201V5.80651ZM92.9032 61.9354V38.7096H100.645V61.9354H92.9032ZM11.6128 47.1725V38.7096H19.3548V44.5929C16.5636 45.286 13.9609 46.1491 11.6128 47.1725ZM23.2258 38.7096H30.9678V42.7927C28.3012 42.9861 25.7069 43.3098 23.2258 43.7615V38.7096ZM30.9678 11.6128V34.8386H23.2258V11.6128H30.9678ZM89.0322 11.6128V34.8386H81.2902V11.6128H89.0322ZM77.4194 34.8386H69.6774V11.6128H77.4194V34.8386ZM65.8064 34.8386H58.0644V11.6128H65.8064V34.8386ZM54.1936 34.8386H46.4516V11.6128H54.1936V34.8386ZM42.5806 34.8386H34.8386V11.6128H42.5806V34.8386ZM34.8386 38.7096H42.5806V42.7927C40.6767 42.6547 38.738 42.5806 36.7741 42.5806C36.1261 42.5806 35.4813 42.5898 34.8386 42.6051V38.7096ZM46.4516 38.7096H54.1936V44.5929C51.743 43.9844 49.148 43.509 46.4516 43.1732V38.7096ZM58.0644 38.7096H65.8064V49.1484C64.7102 48.4893 63.5063 47.8656 62.1948 47.2824C60.8946 46.7048 59.5134 46.177 58.0644 45.7002V38.7096ZM73.5484 59.9999C73.5484 57.1514 72.209 54.4465 69.6774 52.0423V38.7096H77.4194V61.9354H73.5484V59.9999ZM81.2902 38.7096H89.0322V61.9354H81.2902V38.7096ZM92.9032 34.8386V11.6128H100.645V34.8386H92.9032ZM15.4838 19.3548V11.6128H19.3548V34.8386H11.6128V23.2258C13.7472 23.2258 15.4838 21.4892 15.4838 19.3548ZM12.9257 50.8199C19.2636 48.0029 27.7333 46.4516 36.7741 46.4516C45.8149 46.4516 54.2845 48.0029 60.6225 50.8199C66.3769 53.3771 69.6772 56.7234 69.6772 59.9999C69.6772 63.2764 66.3769 66.6226 60.6225 69.1799C54.2845 71.9969 45.8149 73.5482 36.7741 73.5482C27.7333 73.5482 19.2636 71.9969 12.9257 69.1799C7.17131 66.6226 3.87101 63.2764 3.87101 59.9999C3.87101 56.7234 7.17131 53.3771 12.9257 50.8199ZM58.0644 105.044C55.6936 105.903 53.0898 106.604 50.3224 107.139V76.2383C53.0573 75.7408 55.6558 75.0918 58.0644 74.2993V105.044ZM15.4838 74.2996C17.8921 75.0921 20.4909 75.741 23.2258 76.2385V107.139C20.4586 106.604 17.8545 105.903 15.4838 105.044V74.2996ZM27.0968 76.8265C29.6035 77.1386 32.1944 77.3324 34.8388 77.3952V108.361C32.1845 108.296 29.5903 108.096 27.0968 107.769V76.8265ZM38.7096 77.395C41.354 77.3322 43.9449 77.1386 46.4516 76.8263V107.768C43.9583 108.095 41.364 108.295 38.7096 108.36V77.395ZM3.87101 67.9574C5.73635 69.7286 8.24764 71.3371 11.3536 72.7174C11.4383 72.7552 11.5276 72.7898 11.613 72.8272V103.399C6.67353 100.934 3.87101 97.857 3.87101 94.8387V67.9574ZM60.6227 111.761C54.2848 114.578 45.8151 116.129 36.7743 116.129C27.7335 116.129 19.2639 114.578 12.9259 111.761C7.30146 109.261 4.02355 106.008 3.87816 102.803C5.74281 104.572 8.25156 106.177 11.3536 107.556C18.1758 110.588 27.2034 112.258 36.7743 112.258C46.3452 112.258 55.3729 110.588 62.195 107.556C65.2971 106.177 67.806 104.571 69.6705 102.803C69.5249 106.008 66.2472 109.261 60.6227 111.761ZM61.9354 103.399V72.8275C62.0208 72.7903 62.1101 72.7555 62.1948 72.7176C65.3008 71.3374 67.812 69.7291 69.6774 67.9577V94.8387C69.6774 97.857 66.8751 100.934 61.9354 103.399ZM116.129 67.7419C116.129 68.809 115.261 69.6774 114.193 69.6774H73.5484V65.8064H112.258V54.1936H116.129V67.7419ZM108.387 54.1936V61.9356H104.516V38.7096H112.258V50.3224C110.124 50.3226 108.387 52.0592 108.387 54.1936ZM112.258 34.8386H104.516V11.6128H108.387V19.3548C108.387 21.4892 110.124 23.2258 112.258 23.2258V34.8386Z"/>
</mask>
<path d="M120 19.3548V5.80651C120 2.60498 117.395 0 114.193 0L9.67751 0C6.47598 0 3.87101 2.60498 3.87101 5.80651V19.3548C3.87101 21.4892 5.60758 23.2258 7.74201 23.2258V49.1484C2.71898 52.169 0 55.9392 0 59.9999L0 102.58C0 107.528 4.03209 112.044 11.3536 115.298C18.1758 118.33 27.2034 120 36.7743 120C46.3452 120 55.3729 118.33 62.195 115.298C69.5166 112.044 73.5486 107.528 73.5486 102.58V73.5484H114.194C117.395 73.5484 120 70.9434 120 67.7419V54.1936C120 52.0592 118.264 50.3226 116.129 50.3226V23.2258C118.263 23.2258 120 21.4892 120 19.3548ZM7.74201 5.80651C7.74201 4.73941 8.61041 3.87101 9.67751 3.87101H114.193C115.261 3.87101 116.129 4.73941 116.129 5.80651V19.3548H112.258V7.74201H11.6128V19.3548H7.74201V5.80651ZM92.9032 61.9354V38.7096H100.645V61.9354H92.9032ZM11.6128 47.1725V38.7096H19.3548V44.5929C16.5636 45.286 13.9609 46.1491 11.6128 47.1725ZM23.2258 38.7096H30.9678V42.7927C28.3012 42.9861 25.7069 43.3098 23.2258 43.7615V38.7096ZM30.9678 11.6128V34.8386H23.2258V11.6128H30.9678ZM89.0322 11.6128V34.8386H81.2902V11.6128H89.0322ZM77.4194 34.8386H69.6774V11.6128H77.4194V34.8386ZM65.8064 34.8386H58.0644V11.6128H65.8064V34.8386ZM54.1936 34.8386H46.4516V11.6128H54.1936V34.8386ZM42.5806 34.8386H34.8386V11.6128H42.5806V34.8386ZM34.8386 38.7096H42.5806V42.7927C40.6767 42.6547 38.738 42.5806 36.7741 42.5806C36.1261 42.5806 35.4813 42.5898 34.8386 42.6051V38.7096ZM46.4516 38.7096H54.1936V44.5929C51.743 43.9844 49.148 43.509 46.4516 43.1732V38.7096ZM58.0644 38.7096H65.8064V49.1484C64.7102 48.4893 63.5063 47.8656 62.1948 47.2824C60.8946 46.7048 59.5134 46.177 58.0644 45.7002V38.7096ZM73.5484 59.9999C73.5484 57.1514 72.209 54.4465 69.6774 52.0423V38.7096H77.4194V61.9354H73.5484V59.9999ZM81.2902 38.7096H89.0322V61.9354H81.2902V38.7096ZM92.9032 34.8386V11.6128H100.645V34.8386H92.9032ZM15.4838 19.3548V11.6128H19.3548V34.8386H11.6128V23.2258C13.7472 23.2258 15.4838 21.4892 15.4838 19.3548ZM12.9257 50.8199C19.2636 48.0029 27.7333 46.4516 36.7741 46.4516C45.8149 46.4516 54.2845 48.0029 60.6225 50.8199C66.3769 53.3771 69.6772 56.7234 69.6772 59.9999C69.6772 63.2764 66.3769 66.6226 60.6225 69.1799C54.2845 71.9969 45.8149 73.5482 36.7741 73.5482C27.7333 73.5482 19.2636 71.9969 12.9257 69.1799C7.17131 66.6226 3.87101 63.2764 3.87101 59.9999C3.87101 56.7234 7.17131 53.3771 12.9257 50.8199ZM58.0644 105.044C55.6936 105.903 53.0898 106.604 50.3224 107.139V76.2383C53.0573 75.7408 55.6558 75.0918 58.0644 74.2993V105.044ZM15.4838 74.2996C17.8921 75.0921 20.4909 75.741 23.2258 76.2385V107.139C20.4586 106.604 17.8545 105.903 15.4838 105.044V74.2996ZM27.0968 76.8265C29.6035 77.1386 32.1944 77.3324 34.8388 77.3952V108.361C32.1845 108.296 29.5903 108.096 27.0968 107.769V76.8265ZM38.7096 77.395C41.354 77.3322 43.9449 77.1386 46.4516 76.8263V107.768C43.9583 108.095 41.364 108.295 38.7096 108.36V77.395ZM3.87101 67.9574C5.73635 69.7286 8.24764 71.3371 11.3536 72.7174C11.4383 72.7552 11.5276 72.7898 11.613 72.8272V103.399C6.67353 100.934 3.87101 97.857 3.87101 94.8387V67.9574ZM60.6227 111.761C54.2848 114.578 45.8151 116.129 36.7743 116.129C27.7335 116.129 19.2639 114.578 12.9259 111.761C7.30146 109.261 4.02355 106.008 3.87816 102.803C5.74281 104.572 8.25156 106.177 11.3536 107.556C18.1758 110.588 27.2034 112.258 36.7743 112.258C46.3452 112.258 55.3729 110.588 62.195 107.556C65.2971 106.177 67.806 104.571 69.6705 102.803C69.5249 106.008 66.2472 109.261 60.6227 111.761ZM61.9354 103.399V72.8275C62.0208 72.7903 62.1101 72.7555 62.1948 72.7176C65.3008 71.3374 67.812 69.7291 69.6774 67.9577V94.8387C69.6774 97.857 66.8751 100.934 61.9354 103.399ZM116.129 67.7419C116.129 68.809 115.261 69.6774 114.193 69.6774H73.5484V65.8064H112.258V54.1936H116.129V67.7419ZM108.387 54.1936V61.9356H104.516V38.7096H112.258V50.3224C110.124 50.3226 108.387 52.0592 108.387 54.1936ZM112.258 34.8386H104.516V11.6128H108.387V19.3548C108.387 21.4892 110.124 23.2258 112.258 23.2258V34.8386Z" fill="#0A3D62" stroke="white" mask="url(#path-1-inside-1_230_114)"/>
<path d="M36.7744 50.5725C44.4807 50.5725 51.8383 51.7854 57.4912 53.9797C63.256 56.218 64.9206 58.5454 65.2734 59.1555L65.7607 59.9993L65.2734 60.844C64.9209 61.4539 63.2564 63.7814 57.4912 66.0198C51.8383 68.2143 44.4807 69.427 36.7744 69.427C29.0681 69.427 21.7106 68.2141 16.0576 66.0198C10.2932 63.7818 8.62852 61.4542 8.27539 60.844L7.78711 59.9993L8.27539 59.1555C8.62842 58.5453 10.293 56.2178 16.0576 53.9797C21.7106 51.7854 29.0681 50.5725 36.7744 50.5725ZM36.7744 53.9436C29.4902 53.9436 22.5654 55.0695 17.2773 57.1223C14.6941 58.1251 13.1448 59.103 12.2568 59.804L12.0078 60.0002L12.2568 60.1965C13.1444 60.897 14.6935 61.8753 17.2773 62.8782C22.5654 64.931 29.4902 66.0569 36.7744 66.0569C44.0584 66.0569 50.9826 64.9309 56.2705 62.8782C58.854 61.8753 60.404 60.8965 61.292 60.1956L61.541 60.0002L61.292 59.804C60.4045 59.1035 58.8547 58.1252 56.2705 57.1223C50.9825 55.0698 44.0585 53.9436 36.7744 53.9436Z" fill="#0A3D62" stroke="white" stroke-width="0.5"/>
</g>
<defs>
<clipPath id="clip0_230_114">
<rect width="120" height="120" fill="white"/>
</clipPath>
</defs>
</svg>
