<svg width="120" height="120" viewBox="0 0 120 120" fill="none" xmlns="http://www.w3.org/2000/svg">
<g clip-path="url(#clip0_230_122)">
<path d="M71.7094 63.1968C70.95 63.1968 70.3359 63.8108 70.3359 64.5702V88.1835C70.3359 88.9429 70.95 89.5569 71.7094 89.5569C72.4687 89.5569 73.0828 88.9429 73.0828 88.1835V64.5702C73.0828 63.8132 72.4687 63.1968 71.7094 63.1968Z" fill="#0A3D62"/>
<path d="M59.9999 63.1968C59.2405 63.1968 58.6265 63.8108 58.6265 64.5702V88.1835C58.6265 88.9429 59.2405 89.5569 59.9999 89.5569C60.7593 89.5569 61.3733 88.9429 61.3733 88.1835V64.5702C61.3733 63.8132 60.7593 63.1968 59.9999 63.1968Z" fill="#0A3D62"/>
<path d="M48.2909 63.1968C47.5315 63.1968 46.9175 63.8108 46.9175 64.5702V88.1835C46.9175 88.9429 47.5315 89.5569 48.2909 89.5569C49.0503 89.5569 49.6644 88.9429 49.6644 88.1835V64.5702C49.6644 63.8132 49.0503 63.1968 48.2909 63.1968Z" fill="#0A3D62"/>
<path d="M101.177 68.3977H94.4978C94.2095 68.3977 93.9751 68.1633 93.9751 67.875V58.7039V32.2477H99.9517C100.149 32.2477 100.31 32.4094 100.31 32.6063V36.075H99.2157C97.8353 36.075 96.7126 37.1977 96.7126 38.5781V52.636C96.7126 54.0164 97.8353 55.1391 99.2157 55.1391H104.154C105.534 55.1391 106.657 54.0164 106.657 52.636V38.5781C106.657 37.1977 105.534 36.075 104.154 36.075H103.059V32.6063C103.059 30.893 101.665 29.4985 99.954 29.4985H93.9774V23.5641C93.9774 23.5594 93.9774 23.5547 93.9774 23.55C93.9774 23.5477 93.9774 23.5453 93.9774 23.543L93.7993 11.4071L100.603 2.18674C101.053 1.57736 100.924 0.714864 100.313 0.264864C99.7009 -0.185136 98.8431 -0.0562297 98.3907 0.555489L91.3126 10.1508C91.1345 10.3922 91.0407 10.6875 91.0431 10.9875L91.1134 15.7172C88.8704 13.0477 85.5095 11.3461 81.7571 11.3461H38.2454C34.5235 11.3461 31.186 13.0219 28.9431 15.6539L29.011 10.9899C29.0157 10.6899 28.922 10.3946 28.7415 10.1531L21.6634 0.557833C21.2134 -0.0515422 20.3532 -0.182792 19.7415 0.267208C19.1298 0.717208 19.0009 1.57736 19.4509 2.18908L26.2548 11.4094L26.0954 22.2375C26.0485 22.6735 26.0228 23.1164 26.0228 23.5641V29.4985H20.0462C18.3329 29.4985 16.9384 30.893 16.9384 32.6063V36.075H15.8438C14.4634 36.075 13.3407 37.1977 13.3407 38.5781V52.636C13.3407 54.0164 14.4634 55.1391 15.8438 55.1391H20.7821C22.1626 55.1391 23.2853 54.0164 23.2853 52.636V38.5781C23.2853 37.1977 22.1626 36.075 20.7821 36.075H19.6876V32.6063C19.6876 32.4094 19.8493 32.2477 20.0462 32.2477H26.0228V58.7039V67.875C26.0228 68.1633 25.7884 68.3977 25.5001 68.3977H18.8204C15.6634 68.3977 13.0923 70.9664 13.0923 74.1258V103.362C13.0923 105.86 14.7001 107.988 16.936 108.769V116.28C16.936 118.331 18.6048 120 20.6556 120H34.5399C36.5907 120 38.2595 118.331 38.2595 116.28V109.09H81.7524V116.28C81.7524 118.331 83.4212 120 85.472 120H99.3564C101.407 120 103.076 118.331 103.076 116.28V108.764C105.302 107.979 106.903 105.853 106.903 103.362V74.1258C106.906 70.9688 104.334 68.3977 101.177 68.3977ZM103.91 52.3899H99.4618V38.8219H103.91V52.3899ZM20.5384 52.3899H16.0899V38.8219H20.5384V52.3899ZM94.4978 71.1469H101.177C102.82 71.1469 104.156 72.4828 104.156 74.1258V93.0164H81.6728V64.343C81.6728 62.768 81.1946 61.2985 80.3673 60.0797H91.2306V67.8774C91.2282 69.6797 92.6954 71.1469 94.4978 71.1469ZM28.772 32.2477H58.6267V56.018C54.1314 56.0672 49.5915 56.3203 45.1267 56.7938C44.3813 56.8735 43.6735 57.0563 43.0126 57.3305H28.772V32.2477ZM91.2282 32.2477V57.3305H76.9899C76.3314 57.0586 75.6212 56.8735 74.8782 56.7938C70.411 56.3203 65.8735 56.0602 61.3759 56.0156V32.2477H91.2282ZM41.0767 64.343C41.0767 62.5078 42.0985 60.9 43.629 60.0797C44.1681 59.7914 44.7704 59.5969 45.4149 59.5289C50.2712 59.0133 55.2024 58.7461 60.0915 58.7578C64.9126 58.7602 69.7899 59.0203 74.5876 59.5289C75.2321 59.5969 75.8345 59.7914 76.3735 60.0797C77.904 60.9 78.9259 62.5078 78.9259 64.343V93.0188H41.0767V64.343ZM38.2454 14.093H81.7571C86.9743 14.093 91.2189 18.3328 91.2282 23.5477V23.5781V29.5008H28.772V27.0774C28.772 27.061 28.7743 27.0422 28.7743 27.0258L28.8423 22.425C29.4071 17.7375 33.4079 14.093 38.2454 14.093ZM18.8228 71.1469H25.5024C27.3048 71.1469 28.772 69.6797 28.772 67.8774V60.0797H39.6353C38.8079 61.2985 38.3274 62.768 38.3274 64.343V93.0188H15.8438V74.1281C15.8438 72.4828 17.1798 71.1469 18.8228 71.1469ZM35.5149 116.28C35.5149 116.815 35.079 117.251 34.5446 117.251H20.6579C20.1235 117.251 19.6876 116.815 19.6876 116.28V109.09H35.5149V116.28ZM100.331 116.28C100.331 116.815 99.8954 117.251 99.361 117.251H85.4767C84.9423 117.251 84.5064 116.815 84.5064 116.28V109.09H100.334V116.28H100.331ZM101.177 106.341H83.1306H36.8884H18.8228C17.1798 106.341 15.8438 105.005 15.8438 103.362V95.7656H39.7032H80.2993H104.159V103.362C104.156 105.005 102.82 106.341 101.177 106.341Z" fill="#0A3D62"/>
<path d="M87.1172 76.6874V86.5288C87.1172 87.2882 87.7312 87.9023 88.4906 87.9023H98.332C99.0914 87.9023 99.7055 87.2882 99.7055 86.5288V76.6874C99.7055 75.928 99.0914 75.314 98.332 75.314H88.4906C87.7336 75.3116 87.1172 75.928 87.1172 76.6874ZM89.8664 78.0608H96.9609V85.1554H89.8664V78.0608Z" fill="#0A3D62"/>
<path d="M21.6659 87.9022H31.5073C32.2667 87.9022 32.8808 87.2882 32.8808 86.5288V76.6874C32.8808 75.928 32.2667 75.314 31.5073 75.314H21.6659C20.9065 75.314 20.2925 75.928 20.2925 76.6874V86.5288C20.2925 87.2882 20.9065 87.9022 21.6659 87.9022ZM23.0394 78.0608H30.1339V85.1554H23.0394V78.0608Z" fill="#0A3D62"/>
<path d="M50.1352 24.0656C50.8945 24.0656 51.5086 23.4515 51.5086 22.6921V20.7843C51.5086 20.025 50.8945 19.4109 50.1352 19.4109C49.3758 19.4109 48.7617 20.025 48.7617 20.7843V22.6921C48.7617 23.4515 49.3781 24.0656 50.1352 24.0656Z" fill="#0A3D62"/>
<path d="M59.9999 24.0656C60.7593 24.0656 61.3733 23.4515 61.3733 22.6921V20.7843C61.3733 20.025 60.7593 19.4109 59.9999 19.4109C59.2405 19.4109 58.6265 20.025 58.6265 20.7843V22.6921C58.6265 23.4515 59.2405 24.0656 59.9999 24.0656Z" fill="#0A3D62"/>
<path d="M69.8651 24.0656C70.6245 24.0656 71.2386 23.4515 71.2386 22.6921V20.7843C71.2386 20.025 70.6245 19.4109 69.8651 19.4109C69.1058 19.4109 68.4917 20.025 68.4917 20.7843V22.6921C68.4894 23.4515 69.1058 24.0656 69.8651 24.0656Z" fill="#0A3D62"/>
</g>
<defs>
<clipPath id="clip0_230_122">
<rect width="120" height="120" fill="white"/>
</clipPath>
</defs>
</svg>
