<svg width="120" height="120" viewBox="0 0 120 120" fill="none" xmlns="http://www.w3.org/2000/svg">
<path d="M64.3303 78.8891C63.3346 78.8904 62.3617 79.1868 61.5344 79.7409C60.7071 80.2951 60.0627 81.082 59.6826 82.0023C59.3024 82.9226 59.2036 83.9349 59.3987 84.9113C59.5937 85.8877 60.0738 86.7844 60.7784 87.488C61.4829 88.1916 62.3802 88.6706 63.3569 88.8643C64.3335 89.0581 65.3457 88.958 66.2655 88.5767C67.1853 88.1953 67.9714 87.5499 68.5244 86.7219C69.0775 85.8939 69.3727 84.9205 69.3727 83.9248C69.3712 82.5886 68.8392 81.3076 67.8938 80.3633C66.9483 79.4191 65.6666 78.8888 64.3303 78.8891ZM64.3303 85.6784C63.9837 85.6771 63.6453 85.5731 63.3578 85.3795C63.0703 85.186 62.8465 84.9116 62.7148 84.591C62.5831 84.2704 62.5494 83.918 62.6178 83.5782C62.6863 83.2384 62.8539 82.9266 63.0995 82.682C63.345 82.4374 63.6576 82.2711 63.9976 82.204C64.3376 82.1369 64.6899 82.172 65.01 82.305C65.3301 82.438 65.6036 82.6628 65.796 82.9511C65.9883 83.2394 66.091 83.5782 66.091 83.9248C66.0907 84.1556 66.0449 84.3841 65.9563 84.5972C65.8676 84.8103 65.7378 85.0039 65.5743 85.1668C65.4108 85.3296 65.2167 85.4587 65.0033 85.5465C64.7898 85.6343 64.5611 85.6791 64.3303 85.6784ZM59.9006 26.3649L65.4938 16.6791C65.6015 16.4925 65.7449 16.329 65.9158 16.1978C66.0868 16.0667 66.2819 15.9704 66.49 15.9147C66.6981 15.8589 66.9152 15.8447 67.1288 15.8728C67.3424 15.9009 67.5484 15.9708 67.735 16.0786C67.9216 16.1863 68.0851 16.3297 68.2163 16.5006C68.3475 16.6716 68.4437 16.8667 68.4994 17.0748C68.5552 17.2829 68.5694 17.5 68.5413 17.7136C68.5132 17.9272 68.4433 18.1332 68.3356 18.3198L62.7422 28.0062C62.6345 28.1928 62.4911 28.3564 62.3201 28.4876C62.1492 28.6187 61.9541 28.7149 61.746 28.7707C61.5379 28.8265 61.3208 28.8407 61.1072 28.8126C60.8936 28.7845 60.6876 28.7146 60.501 28.6068C60.3144 28.4991 60.1508 28.3557 60.0197 28.1848C59.8885 28.0138 59.7923 27.8187 59.7365 27.6106C59.6808 27.4025 59.6665 27.1854 59.6946 26.9718C59.7228 26.7582 59.7927 26.5522 59.9004 26.3656L59.9006 26.3649ZM93.3544 43.1485C93.3544 42.7134 93.5272 42.2961 93.8349 41.9884C94.1426 41.6807 94.5599 41.5079 94.995 41.5079H106.189C106.624 41.5079 107.041 41.6807 107.349 41.9884C107.657 42.2961 107.829 42.7134 107.829 43.1485C107.829 43.5836 107.657 44.0009 107.349 44.3086C107.041 44.6163 106.624 44.7891 106.189 44.7891H94.995C94.5599 44.7891 94.1426 44.6163 93.8349 44.3086C93.5272 44.0009 93.3544 43.5836 93.3544 43.1485ZM87.1563 94.9923V106.186C87.1563 106.621 86.9835 107.038 86.6758 107.346C86.3681 107.654 85.9508 107.827 85.5157 107.827C85.0806 107.827 84.6633 107.654 84.3556 107.346C84.0479 107.038 83.8751 106.621 83.8751 106.186V94.9923C83.8751 94.5571 84.0479 94.1398 84.3556 93.8322C84.6633 93.5245 85.0806 93.3516 85.5157 93.3516C85.9508 93.3516 86.3681 93.5245 86.6758 93.8322C86.9835 94.1398 87.1563 94.5571 87.1563 94.9923ZM78.8728 31.4736C78.765 31.287 78.6951 31.0809 78.667 30.8673C78.6389 30.6536 78.6531 30.4365 78.7089 30.2283C78.7647 30.0202 78.861 29.825 78.9922 29.6541C79.1235 29.4831 79.2871 29.3397 79.4738 29.232L89.1661 23.6387C89.543 23.4211 89.991 23.3622 90.4114 23.4749C90.8317 23.5876 91.1901 23.8627 91.4077 24.2396C91.6252 24.6165 91.6841 25.0645 91.5714 25.4848C91.4587 25.9052 91.1837 26.2636 90.8067 26.4812L81.1144 32.0745C80.9278 32.1823 80.7218 32.2522 80.5081 32.2803C80.2945 32.3084 80.0774 32.2941 79.8692 32.2383C79.6611 32.1825 79.466 32.0863 79.2951 31.9551C79.1242 31.8238 78.9807 31.6602 78.8731 31.4736H78.8728ZM105.026 89.1627C105.133 89.3492 105.203 89.5552 105.231 89.7688C105.259 89.9825 105.245 90.1995 105.189 90.4076C105.134 90.6158 105.037 90.8109 104.906 90.9818C104.775 91.1527 104.612 91.2961 104.425 91.4039C104.238 91.5116 104.032 91.5815 103.819 91.6096C103.605 91.6377 103.388 91.6235 103.18 91.5677C102.972 91.512 102.777 91.4158 102.606 91.2846C102.435 91.1534 102.291 90.9899 102.184 90.8033L96.5904 81.1173C96.4827 80.9307 96.4128 80.7247 96.3846 80.5111C96.3565 80.2974 96.3708 80.0804 96.4265 79.8723C96.4823 79.6642 96.5785 79.4691 96.7097 79.2981C96.8408 79.1272 97.0044 78.9838 97.191 78.8761C97.3776 78.7683 97.5836 78.6984 97.7972 78.6703C98.0108 78.6422 98.2279 78.6564 98.436 78.7122C98.6441 78.7679 98.8392 78.8642 99.0101 78.9953C99.1811 79.1265 99.3245 79.29 99.4322 79.4766L105.026 89.1627ZM104.453 25.7424C95.4013 16.2921 83.2941 10.3539 70.2799 8.98156L71.1907 8.07102C71.5636 7.69865 71.8366 7.23839 71.9847 6.73269C72.1328 6.22698 72.1512 5.69213 72.0382 5.17745C71.9251 4.66278 71.6843 4.18486 71.3379 3.78778C70.9915 3.39069 70.5507 3.08723 70.0561 2.90539C56.3016 -2.12875 43.6795 -0.547656 37.1299 7.01586C37.0758 7.07492 36.862 7.29336 36.5618 7.59781L32.6742 3.70508C32.4084 3.43894 32.0593 3.27222 31.6852 3.23284C31.3111 3.19345 30.9349 3.2838 30.6195 3.48875C19.8434 10.4886 10.7178 19.6133 3.49595 30.6095C3.28868 30.9249 3.19649 31.3021 3.23491 31.6775C3.27334 32.053 3.44003 32.4037 3.70689 32.6705L7.59752 36.5612C7.41161 36.7465 7.22411 36.9301 7.03502 37.1122C-0.544671 43.6766 -2.126 56.2986 2.90767 70.0515C3.08758 70.547 3.39015 70.9888 3.7871 71.3356C4.18406 71.6824 4.66246 71.923 5.17759 72.0348C5.4015 72.0842 5.6301 72.1091 5.85939 72.1093C6.27098 72.109 6.67847 72.0274 7.05846 71.8693C7.43846 71.7111 7.78349 71.4795 8.07377 71.1877L8.98478 70.2767C9.93057 79.083 12.964 87.5365 17.833 94.9349C22.7021 102.333 29.2662 108.463 36.9801 112.815C44.694 117.167 53.3351 119.616 62.1854 119.958C71.0357 120.299 79.8398 118.525 87.8664 114.78C95.8929 111.036 102.91 105.431 108.335 98.4297C113.76 91.4287 117.437 83.2343 119.059 74.5272C120.681 65.8201 120.202 56.8516 117.662 48.3668C115.121 39.882 110.593 32.1258 104.453 25.7424ZM5.91142 68.7092C3.74134 62.6963 2.89595 56.8051 3.46595 51.658C4.03595 46.5109 6.01314 42.339 9.1833 39.5935C9.29486 39.497 9.50814 39.2914 11.0796 37.73C11.2328 37.5778 11.3545 37.3969 11.4376 37.1976C11.5208 36.9983 11.5637 36.7846 11.5641 36.5686C11.5644 36.3527 11.5221 36.1388 11.4397 35.9392C11.3572 35.7397 11.2361 35.5584 11.0834 35.4057L6.979 31.3013C13.4365 21.6957 21.6957 13.4338 31.2992 6.9732L35.4077 11.086C35.5601 11.2386 35.7411 11.3597 35.9403 11.4423C36.1394 11.5249 36.353 11.5674 36.5686 11.5674H36.5733C36.7898 11.5668 37.004 11.5233 37.2036 11.4395C37.4032 11.3558 37.5842 11.2333 37.7363 11.0792L38.0904 10.7206C39.2562 9.54031 39.4938 9.29844 39.5963 9.18055C42.3417 6.00969 46.5136 4.03273 51.6607 3.4618C56.8078 2.89086 62.7077 3.73859 68.7122 5.90727L65.4804 9.1407C65.4654 9.15453 65.4518 9.16953 65.4373 9.18383L51.0495 23.5714C44.5913 25.5918 38.7187 29.1465 33.9339 33.9313C29.149 38.7162 25.5944 44.5888 23.5739 51.047L5.91142 68.7092ZM64.3303 116.722C50.9278 116.758 38.0244 111.64 28.2899 102.428C18.5553 93.2154 12.7347 80.6135 12.0321 67.2294L16.3481 62.9134C16.448 63.0133 16.5603 63.1 16.6824 63.1712L26.3672 68.7657C26.7441 68.9833 27.1919 69.0422 27.6123 68.9295C28.0326 68.8169 28.391 68.5419 28.6085 68.165C28.8261 67.7881 28.885 67.3403 28.7724 66.9199C28.6597 66.4996 28.3847 66.1412 28.0078 65.9237L18.7097 60.5518L26.183 53.0785C26.3747 52.8867 26.5159 52.6505 26.5941 52.3909C28.4345 46.2969 31.7531 40.7526 36.2544 36.2513C40.7556 31.75 46.2999 28.4314 52.3938 26.5909C52.6534 26.5129 52.8896 26.3718 53.0813 26.1802L67.2324 12.0291C80.6165 12.7333 93.2178 18.5557 102.429 28.2915C111.64 38.0273 116.756 50.9315 116.719 64.3341C116.719 93.2209 93.2173 116.722 64.3303 116.722ZM112.586 67.7321C112.478 67.9187 112.334 68.0823 112.163 68.2135C111.992 68.3447 111.797 68.4409 111.589 68.4967C111.381 68.5525 111.164 68.5667 110.95 68.5385C110.737 68.5103 110.531 68.4404 110.344 68.3326L100.658 62.7392C100.282 62.5217 100.007 62.1633 99.8939 61.743C99.7813 61.3226 99.8402 60.8748 100.058 60.4979C100.275 60.121 100.634 59.846 101.054 59.7333C101.474 59.6207 101.922 59.6796 102.299 59.8972L111.984 65.4905C112.171 65.5982 112.335 65.7416 112.466 65.9126C112.597 66.0835 112.694 66.2786 112.749 66.4868C112.805 66.6949 112.819 66.9121 112.791 67.1257C112.763 67.3394 112.693 67.5455 112.586 67.7321ZM35.3121 85.5125C35.3121 85.9476 35.1393 86.3649 34.8316 86.6726C34.5239 86.9803 34.1066 87.1531 33.6715 87.1531H22.4787C22.0436 87.1531 21.6263 86.9803 21.3186 86.6726C21.0109 86.3649 20.8381 85.9476 20.8381 85.5125C20.8381 85.0774 21.0109 84.6601 21.3186 84.3524C21.6263 84.0447 22.0436 83.8719 22.4787 83.8719H33.6722C33.8877 83.8718 34.101 83.9143 34.3001 83.9967C34.4992 84.0791 34.6801 84.2 34.8325 84.3523C34.9848 84.5047 35.1057 84.6855 35.1882 84.8846C35.2706 85.0837 35.3131 85.297 35.3131 85.5125H35.3121ZM64.3294 75.3819C66.5154 75.3826 68.6524 74.7349 70.4703 73.5209C72.2882 72.3069 73.7051 70.581 74.542 68.5616C75.3789 66.5421 75.598 64.3199 75.1718 62.1759C74.7455 60.0319 73.6929 58.0624 72.1472 56.5167C70.6015 54.971 68.6321 53.9184 66.4881 53.492C64.3441 53.0657 62.1219 53.2848 60.1024 54.1217C58.0829 54.9585 56.357 56.3754 55.143 58.1933C53.9289 60.0111 53.2812 62.1482 53.2819 64.3341C53.2858 67.2631 54.4511 70.071 56.5223 72.142C58.5934 74.213 61.4014 75.3781 64.3303 75.3819H64.3294ZM64.3294 56.5616C65.866 56.5609 67.3682 57.0159 68.6462 57.8691C69.9242 58.7222 70.9205 59.9351 71.5091 61.3545C72.0977 62.7739 72.2522 64.3359 71.9531 65.8431C71.654 67.3502 70.9146 68.7349 69.8285 69.8219C68.7425 70.9088 67.3585 71.6494 65.8516 71.9498C64.3446 72.2502 62.7825 72.097 61.3626 71.5096C59.9428 70.9221 58.729 69.9269 57.8748 68.6496C57.0205 67.3724 56.5643 65.8705 56.5636 64.3339C56.566 62.2743 57.3849 60.2996 58.8408 58.8428C60.2966 57.3859 62.2707 56.5656 64.3303 56.5618L64.3294 56.5616ZM64.3294 49.7722C65.3254 49.7723 66.2991 49.477 67.1273 48.9237C67.9555 48.3704 68.601 47.584 68.9822 46.6638C69.3634 45.7436 69.4632 44.7311 69.2689 43.7542C69.0746 42.7773 68.595 41.88 67.8908 41.1757C67.1865 40.4713 66.2892 39.9917 65.3123 39.7974C64.3354 39.6031 63.3229 39.7028 62.4027 40.084C61.4825 40.4651 60.696 41.1106 60.1427 41.9388C59.5893 42.767 59.294 43.7406 59.2941 44.7366C59.2964 46.0716 59.8278 47.3511 60.7718 48.295C61.7158 49.2389 62.9954 49.7702 64.3303 49.7724L64.3294 49.7722ZM64.3294 42.9828C64.6763 42.9828 65.0154 43.0856 65.3038 43.2783C65.5923 43.471 65.8171 43.7448 65.9499 44.0653C66.0827 44.3858 66.1174 44.7384 66.0498 45.0787C65.9821 45.4189 65.8151 45.7314 65.5699 45.9767C65.3246 46.222 65.0121 46.3891 64.6719 46.4568C64.3316 46.5244 63.979 46.4897 63.6585 46.357C63.338 46.2243 63.0641 45.9995 62.8714 45.711C62.6787 45.4226 62.5758 45.0835 62.5758 44.7366C62.5773 44.2719 62.7626 43.8265 63.0914 43.498C63.4201 43.1694 63.8655 42.9843 64.3303 42.983L64.3294 42.9828ZM64.3294 96.4203C82.0247 96.4203 96.4226 82.0262 96.4226 64.3344C96.4226 46.6391 82.0256 32.2412 64.3294 32.2412C46.6369 32.2412 32.2435 46.6381 32.2435 64.3344C32.2442 82.0266 46.6378 96.4219 64.3303 96.4219L64.3294 96.4203ZM64.3294 35.5224C70.0271 35.5218 75.597 37.2107 80.3348 40.3756C85.0726 43.5405 88.7655 48.0393 90.9465 53.303C93.1275 58.5667 93.6987 64.359 92.5877 69.9473C91.4768 75.5356 88.7337 80.6691 84.7053 84.6984C80.6769 88.7277 75.5441 91.472 69.956 92.5842C64.368 93.6964 58.5756 93.1265 53.3114 90.9467C48.0472 88.7669 43.5475 85.075 40.3815 80.338C37.2155 75.6009 35.5254 70.0313 35.5247 64.3337C35.5334 56.6961 38.571 49.3739 43.971 43.9729C49.3711 38.5718 56.6928 35.533 64.3303 35.5229L64.3294 35.5224ZM44.8395 58.8908C45.702 59.3898 46.6931 59.6218 47.6875 59.5573C48.6819 59.4929 49.6348 59.135 50.4257 58.5289C51.2166 57.9228 51.81 57.0957 52.1308 56.1523C52.4515 55.2088 52.4852 54.1915 52.2276 53.2289C51.9701 52.2663 51.4328 51.4017 50.6837 50.7446C49.9346 50.0874 49.0075 49.6672 48.0196 49.5371C47.0316 49.407 46.0273 49.5728 45.1337 50.0136C44.24 50.4545 43.4972 51.1504 42.9992 52.0135L42.9977 52.0159C42.3336 53.1727 42.1546 54.5455 42.4999 55.8339C42.8452 57.1224 43.6867 58.2216 44.8404 58.8912L44.8395 58.8908ZM45.8414 53.6541C46.0759 53.2519 46.46 52.9588 46.9098 52.8386C47.3597 52.7185 47.8388 52.7811 48.2426 53.0129C48.5426 53.187 48.7844 53.4461 48.9372 53.7575C49.0901 54.0689 49.1472 54.4187 49.1014 54.7625C49.0556 55.1064 48.9089 55.429 48.6799 55.6895C48.4508 55.9501 48.1497 56.1369 47.8146 56.2264C47.4794 56.3159 47.1253 56.3041 46.7968 56.1924C46.4684 56.0807 46.1804 55.8742 45.9693 55.599C45.7581 55.3238 45.6333 54.9921 45.6105 54.6459C45.5878 54.2998 45.6681 53.9547 45.8414 53.6541ZM83.8179 69.7686C83.1496 69.3811 82.4011 69.1526 81.6303 69.1007C80.8596 69.0489 80.0872 69.175 79.373 69.4695C78.6588 69.7639 78.022 70.2188 77.5117 70.7988C77.0015 71.3788 76.6315 72.0684 76.4305 72.8143C76.2294 73.5602 76.2027 74.3423 76.3524 75.1002C76.502 75.8581 76.8241 76.5713 77.2935 77.1848C77.763 77.7983 78.3673 78.2955 79.0598 78.638C79.7522 78.9805 80.5141 79.1591 81.2867 79.16C82.1718 79.1614 83.0418 78.9306 83.8098 78.4905C84.5778 78.0504 85.2168 77.4166 85.6631 76.6522L85.6671 76.6454C85.9974 76.0725 86.2115 75.4401 86.2972 74.7844C86.383 74.1288 86.3387 73.4626 86.1669 72.824C85.9951 72.1855 85.6991 71.587 85.296 71.0629C84.8928 70.5387 84.3903 70.0992 83.8172 69.7693L83.8179 69.7686ZM82.8256 75.0041C82.7112 75.2054 82.5581 75.3822 82.3752 75.5241C82.1922 75.6661 81.983 75.7705 81.7596 75.8313C81.5362 75.8922 81.3029 75.9082 81.0732 75.8785C80.8436 75.8488 80.622 75.774 80.4214 75.6584C80.2207 75.5428 80.0449 75.3886 79.9041 75.2048C79.7633 75.021 79.6602 74.8112 79.6007 74.5873C79.5413 74.3635 79.5267 74.1302 79.5578 73.9007C79.5889 73.6712 79.6651 73.4502 79.782 73.2502C79.896 73.0508 80.0485 72.8761 80.2306 72.7361C80.4127 72.5962 80.6207 72.4937 80.8427 72.4348C81.066 72.3744 81.2991 72.3588 81.5284 72.3892C81.7578 72.4195 81.9788 72.4951 82.1787 72.6116C82.3783 72.7261 82.5535 72.8788 82.6941 73.0611C82.8347 73.2433 82.938 73.4515 82.9981 73.6737C83.0582 73.8959 83.0739 74.1278 83.0443 74.356C83.0148 74.5843 82.9405 74.8045 82.8258 75.0041H82.8256ZM49.8846 78.4892C51.0405 77.8204 51.8837 76.7201 52.2288 75.43C52.574 74.1399 52.3929 72.7656 51.7254 71.6089C51.0444 70.4779 49.9468 69.6593 48.6685 69.3292C47.3903 68.999 46.0335 69.1837 44.89 69.8435C43.7465 70.5034 42.9076 71.5856 42.5538 72.8575C42.1999 74.1294 42.3593 75.4893 42.9977 76.6449L42.9992 76.6473C43.6698 77.8026 44.771 78.6451 46.0615 78.9903C47.352 79.3356 48.7267 79.1554 49.8846 78.4892ZM45.8438 75.008C45.7255 74.8081 45.6482 74.5867 45.6161 74.3567C45.584 74.1266 45.5979 73.8925 45.6569 73.6679C45.7159 73.4432 45.8188 73.2325 45.9598 73.0479C46.1008 72.8634 46.277 72.7086 46.4782 72.5925C46.6794 72.4765 46.9016 72.4015 47.132 72.372C47.3624 72.3424 47.5963 72.3588 47.8203 72.4203C48.0443 72.4817 48.2539 72.587 48.4369 72.73C48.62 72.8729 48.7728 73.0508 48.8867 73.2533C49.118 73.6558 49.1806 74.1336 49.0606 74.5821C48.9407 75.0306 48.648 75.4134 48.2466 75.6467C47.8429 75.8793 47.3637 75.9426 46.9134 75.823C46.4632 75.7033 46.0787 75.4103 45.8438 75.008ZM49.7885 97.1879C49.8963 97.3745 49.9663 97.5804 49.9944 97.7941C50.0226 98.0077 50.0084 98.2247 49.9526 98.4329C49.8969 98.641 49.8007 98.8361 49.6696 99.0071C49.5384 99.178 49.3749 99.3215 49.1883 99.4292L39.5018 105.024C39.1249 105.241 38.6771 105.3 38.2567 105.187C37.8364 105.075 37.478 104.8 37.2605 104.423C37.0429 104.046 36.984 103.598 37.0966 103.178C37.2093 102.757 37.4843 102.399 37.8612 102.181L47.5472 96.5879C47.9239 96.3704 48.3716 96.3115 48.7917 96.424C49.2119 96.5365 49.5702 96.8113 49.7878 97.1879H49.7885ZM68.768 102.297L63.1744 111.983C63.0667 112.169 62.9232 112.333 62.7523 112.464C62.5814 112.595 62.3863 112.692 62.1782 112.747C61.9701 112.803 61.753 112.817 61.5394 112.789C61.3258 112.761 61.1198 112.691 60.9332 112.583C60.7466 112.476 60.583 112.332 60.4519 112.161C60.3207 111.99 60.2245 111.795 60.1687 111.587C60.1129 111.379 60.0987 111.162 60.1268 110.948C60.1549 110.735 60.2249 110.529 60.3326 110.342L65.9262 100.656C66.0339 100.47 66.1773 100.306 66.3483 100.175C66.5192 100.044 66.7143 99.9477 66.9224 99.8919C67.1305 99.8362 67.3476 99.8219 67.5612 99.8501C67.7748 99.8782 67.9808 99.9481 68.1674 100.056C68.354 100.164 68.5175 100.307 68.6487 100.478C68.7799 100.649 68.8761 100.844 68.9319 101.052C68.9876 101.26 69.0019 101.477 68.9737 101.691C68.9456 101.904 68.8757 102.111 68.768 102.297ZM80.0042 59.4015C80.4298 59.5155 80.8685 59.5734 81.3092 59.5737C82.1906 59.5734 83.056 59.3389 83.817 58.8941C84.9733 58.2265 85.8177 57.1276 86.1648 55.8383C86.5119 54.549 86.3334 53.1747 85.6685 52.0168L85.6645 52.0098C84.9914 50.8578 83.8905 50.0184 82.6015 49.6743C81.3124 49.3301 79.9396 49.509 78.7819 50.172C77.9195 50.6711 77.2245 51.4145 76.7845 52.3085C76.3446 53.2025 76.1796 54.2068 76.3103 55.1945C76.441 56.1823 76.8616 57.1091 77.5189 57.8578C78.1762 58.6066 79.0407 59.1437 80.0032 59.4012L80.0042 59.4015ZM79.6083 54.0798C79.7067 53.7074 79.9257 53.3781 80.231 53.1433C80.5362 52.9084 80.9106 52.7812 81.2958 52.7816C81.6835 52.7782 82.0614 52.9038 82.37 53.1385C82.6786 53.3733 82.9005 53.7039 83.0009 54.0784C83.1012 54.4529 83.0743 54.8502 82.9243 55.2078C82.7743 55.5653 82.5098 55.863 82.1724 56.0539C81.872 56.2264 81.5274 56.306 81.1818 56.2827C80.8363 56.2594 80.5054 56.1342 80.231 55.923C79.9566 55.7117 79.7509 55.4239 79.6399 55.0958C79.529 54.7678 79.5177 54.4142 79.6076 54.0798H79.6083ZM50.0942 17.4662C51.2144 17.4654 52.2998 17.0763 53.1653 16.365C54.0309 15.6537 54.623 14.6643 54.8409 13.5655C55.0587 12.4666 54.8888 11.3261 54.3601 10.3384C53.8314 9.35075 52.9766 8.57694 51.9414 8.14884C50.9061 7.72074 49.7544 7.66483 48.6826 7.99065C47.6107 8.31646 46.685 9.00384 46.0631 9.93567C45.4412 10.8675 45.1616 11.9861 45.272 13.101C45.3824 14.2158 45.876 15.2579 46.6685 16.0496C47.1181 16.4997 47.6522 16.8565 48.24 17.0996C48.8279 17.3427 49.458 17.4673 50.0942 17.4662ZM48.9891 11.5187C49.2076 11.3001 49.4861 11.1513 49.7893 11.091C50.0924 11.0307 50.4066 11.0616 50.6922 11.1799C50.9778 11.2982 51.2219 11.4985 51.3936 11.7555C51.5653 12.0125 51.657 12.3147 51.657 12.6237C51.657 12.9328 51.5653 13.235 51.3936 13.492C51.2219 13.749 50.9778 13.9493 50.6922 14.0676C50.4066 14.1859 50.0924 14.2168 49.7893 14.1565C49.4861 14.0962 49.2076 13.9474 48.9891 13.7288C48.8433 13.5841 48.7277 13.4119 48.6487 13.2222C48.5698 13.0326 48.5292 12.8292 48.5292 12.6237C48.5292 12.4183 48.5698 12.2149 48.6487 12.0253C48.7277 11.8356 48.8433 11.6634 48.9891 11.5187ZM9.20134 46.6653C8.5238 47.3428 8.06237 48.206 7.87543 49.1458C7.68848 50.0855 7.7844 51.0596 8.15106 51.9449C8.51773 52.8301 9.13866 53.5867 9.93535 54.1191C10.732 54.6514 11.6687 54.9355 12.6269 54.9355C13.585 54.9355 14.5217 54.6514 15.3184 54.1191C16.115 53.5867 16.736 52.8301 17.1026 51.9449C17.4693 51.0596 17.5652 50.0855 17.3783 49.1458C17.1913 48.206 16.7299 47.3428 16.0524 46.6653C15.1431 45.7582 13.9112 45.2487 12.6269 45.2487C11.3425 45.2487 10.1106 45.7582 9.20134 46.6653ZM13.7318 51.1962C13.5133 51.4146 13.2349 51.5632 12.932 51.6234C12.629 51.6835 12.315 51.6525 12.0296 51.5342C11.7443 51.416 11.5004 51.2157 11.3288 50.9589C11.1572 50.702 11.0656 50.4001 11.0656 50.0912C11.0656 49.7823 11.1572 49.4803 11.3288 49.2235C11.5004 48.9666 11.7443 48.7664 12.0296 48.6481C12.315 48.5298 12.629 48.4988 12.932 48.559C13.2349 48.6191 13.5133 48.7678 13.7318 48.9861C13.8783 49.1304 13.9947 49.3025 14.0741 49.4922C14.1535 49.6819 14.1944 49.8855 14.1944 50.0912C14.1944 50.2968 14.1535 50.5004 14.0741 50.6902C13.9947 50.8799 13.8783 51.0519 13.7318 51.1962ZM27.8438 27.841C28.6384 27.0483 29.1335 26.0045 29.2446 24.8876C29.3558 23.7707 29.0762 22.6499 28.4535 21.7161C27.8307 20.7822 26.9034 20.0933 25.8295 19.7667C24.7557 19.4401 23.6018 19.496 22.5646 19.9249C21.5274 20.3538 20.671 21.1292 20.1415 22.1188C19.6119 23.1085 19.442 24.2511 19.6606 25.3521C19.8793 26.453 20.473 27.444 21.3405 28.1561C22.2081 28.8683 23.2957 29.2576 24.4181 29.2576C25.7025 29.2576 26.9345 28.7482 27.8438 27.841ZM23.3131 25.5207C23.0946 25.3022 22.9458 25.0237 22.8856 24.7206C22.8253 24.4175 22.8563 24.1034 22.9746 23.8179C23.0928 23.5324 23.2931 23.2884 23.5501 23.1167C23.807 22.945 24.1091 22.8534 24.4181 22.8534C24.7272 22.8534 25.0293 22.945 25.2862 23.1167C25.5432 23.2884 25.7434 23.5324 25.8617 23.8179C25.98 24.1034 26.011 24.4175 25.9507 24.7206C25.8905 25.0237 25.7417 25.3022 25.5232 25.5207C25.2299 25.8134 24.8325 25.9777 24.4182 25.9776C24.0038 25.9775 23.6065 25.813 23.3133 25.5202L23.3131 25.5207Z" fill="#0A3D62"/>
</svg>
