<svg width="24" height="24" viewBox="0 0 24 24" fill="none" xmlns="http://www.w3.org/2000/svg">
<g clip-path="url(#clip0_194_263)">
<path d="M12.0418 24.008L12.7389 23.4105C13.6999 22.6058 22.0908 15.3591 22.0908 10.0583C22.0908 4.50839 17.5917 0.00927734 12.0418 0.00927734C6.4919 0.00927734 1.99279 4.50839 1.99279 10.0583C1.99279 15.3592 10.3837 22.6059 11.3407 23.4145L12.0418 24.008ZM12.0418 2.18217C16.3896 2.18709 19.913 5.71045 19.9179 10.0582C19.9179 13.3883 14.7554 18.7081 12.0418 21.1429C9.32812 18.7071 4.16573 13.3843 4.16573 10.0582C4.17065 5.71045 7.69396 2.18714 12.0418 2.18217Z" fill="#0A3D62"/>
<path d="M12.042 14.0414C14.242 14.0414 16.0254 12.258 16.0254 10.0581C16.0254 7.85811 14.242 6.07471 12.042 6.07471C9.84211 6.07471 8.0587 7.85811 8.0587 10.0581C8.0587 12.258 9.84206 14.0414 12.042 14.0414ZM12.042 8.06633C13.142 8.06633 14.0337 8.95804 14.0337 10.058C14.0337 11.158 13.142 12.0497 12.042 12.0497C10.9421 12.0497 10.0504 11.158 10.0504 10.058C10.0504 8.95804 10.942 8.06633 12.042 8.06633Z" fill="#0A3D62"/>
</g>
<defs>
<clipPath id="clip0_194_263">
<rect width="24" height="24" fill="white" transform="matrix(-1 0 0 1 24 0)"/>
</clipPath>
</defs>
</svg>
