<svg width="120" height="120" viewBox="0 0 120 120" fill="none" xmlns="http://www.w3.org/2000/svg">
<path d="M48.3551 20.6798C48.6305 17.7815 49.9767 15.09 52.1306 13.1312C54.2844 11.1724 57.0912 10.0869 60.0026 10.0869C62.9139 10.0869 65.7207 11.1724 67.8745 13.1312C70.0284 15.09 71.3746 17.7815 71.6501 20.6798C71.8156 22.5521 72.4299 24.3569 73.4407 25.9415C74.4516 27.5261 75.8293 28.8438 77.4574 29.7832C79.0854 30.7225 80.9158 31.2558 82.7936 31.3379C84.6713 31.42 86.5413 31.0485 88.2451 30.2548C90.8906 29.0537 93.8884 28.8799 96.6551 29.7672C99.4217 30.6545 101.759 32.5395 103.213 35.0553C104.666 37.5711 105.131 40.5376 104.518 43.3776C103.905 46.2176 102.257 48.7279 99.8951 50.4198C98.357 51.499 97.1014 52.9328 96.2346 54.5999C95.3678 56.267 94.9153 58.1183 94.9153 59.9973C94.9153 61.8762 95.3678 63.7276 96.2346 65.3947C97.1014 67.0617 98.357 68.4955 99.8951 69.5748C102.257 71.2667 103.905 73.7769 104.518 76.6169C105.131 79.4569 104.666 82.4235 103.213 84.9393C101.759 87.455 99.4217 89.34 96.6551 90.2274C93.8884 91.1147 90.8906 90.9409 88.2451 89.7398C86.5413 88.9461 84.6713 88.5746 82.7936 88.6567C80.9158 88.7388 79.0854 89.272 77.4574 90.2114C75.8293 91.1507 74.4516 92.4685 73.4407 94.0531C72.4299 95.6377 71.8156 97.4425 71.6501 99.3148C71.3746 102.213 70.0284 104.905 67.8745 106.863C65.7207 108.822 62.9139 109.908 60.0026 109.908C57.0912 109.908 54.2844 108.822 52.1306 106.863C49.9767 104.905 48.6305 102.213 48.3551 99.3148C48.1898 97.4418 47.5755 95.6363 46.5644 94.0511C45.5532 92.466 44.1749 91.1478 42.5462 90.2084C40.9175 89.2689 39.0864 88.7359 37.208 88.6543C35.3295 88.5727 33.4591 88.9451 31.7551 89.7398C29.1095 90.9409 26.1117 91.1147 23.3451 90.2274C20.5784 89.34 18.2409 87.455 16.7875 84.9393C15.334 82.4235 14.8686 79.4569 15.4819 76.6169C16.0951 73.7769 17.7431 71.2667 20.1051 69.5748C21.6432 68.4955 22.8987 67.0617 23.7655 65.3947C24.6323 63.7276 25.0848 61.8762 25.0848 59.9973C25.0848 58.1183 24.6323 56.267 23.7655 54.5999C22.8987 52.9328 21.6432 51.499 20.1051 50.4198C17.7464 48.727 16.1013 46.2178 15.4896 43.3797C14.8778 40.5416 15.3431 37.5775 16.795 35.0633C18.2469 32.5492 20.5816 30.6647 23.3455 29.776C26.1094 28.8873 29.105 29.058 31.7501 30.2548C33.4538 31.0485 35.3238 31.42 37.2016 31.3379C39.0793 31.2558 40.9097 30.7225 42.5377 29.7832C44.1658 28.8438 45.5435 27.5261 46.5544 25.9415C47.5653 24.3569 48.1795 22.5521 48.3451 20.6798M75.0001 59.9998C75.0001 68.2841 68.2843 74.9998 60.0001 74.9998C51.7158 74.9998 45.0001 68.2841 45.0001 59.9998C45.0001 51.7155 51.7158 44.9998 60.0001 44.9998C68.2843 44.9998 75.0001 51.7155 75.0001 59.9998Z" stroke="#0A3D62" stroke-width="5" stroke-linecap="round" stroke-linejoin="round"/>
</svg>
